<svg width="28" height="30" viewBox="0 0 28 30" fill="none" xmlns="http://www.w3.org/2000/svg">
<path d="M4 1.875C1.79375 1.875 0 3.55664 0 5.625V24.375C0 26.4434 1.79375 28.125 4 28.125H10.1375V19.582H6.8375V15H10.1375V13.0254C10.1375 7.92188 12.6 5.55469 17.95 5.55469C18.9625 5.55469 20.7125 5.74219 21.4312 5.92969V10.0781C21.0562 10.043 20.4 10.0195 19.5812 10.0195C16.9562 10.0195 15.9438 10.9512 15.9438 13.3711V15H21.1688L20.2687 19.582H15.9375V28.125H24C26.2062 28.125 28 26.4434 28 24.375V5.625C28 3.55664 26.2062 1.875 24 1.875H4Z" fill="black"/>
</svg>
