<svg width="28" height="30" viewBox="0 0 28 30" fill="none" xmlns="http://www.w3.org/2000/svg">
<path d="M12.15 12.4043C11.786 12.6324 11.4735 12.9256 11.2303 13.2669C10.9871 13.6083 10.8181 13.9913 10.7328 14.3939C10.5605 15.207 10.7398 16.051 11.2312 16.7402C11.7227 17.4294 12.4861 17.9074 13.3535 18.0689C14.2208 18.2304 15.1211 18.0623 15.8562 17.6016C16.5914 17.1408 17.1012 16.4251 17.2735 15.612C17.4458 14.7988 17.2665 13.9548 16.775 13.2656C16.2835 12.5764 15.5201 12.0985 14.6528 11.937C13.7854 11.7754 12.8851 11.9435 12.15 12.4043ZM21.0438 8.39648C20.7188 8.0918 20.325 7.85156 19.8937 7.69336C18.7625 7.27734 16.2938 7.29492 14.7 7.3125C14.4437 7.3125 14.2063 7.31836 14 7.31836C13.7937 7.31836 13.55 7.31836 13.2875 7.3125C11.6938 7.29492 9.2375 7.27148 8.10625 7.69336C7.675 7.85156 7.2875 8.0918 6.95625 8.39648C6.625 8.70117 6.375 9.07031 6.20625 9.47461C5.7625 10.5352 5.7875 12.8555 5.8 14.3496C5.8 14.5898 5.80625 14.8125 5.80625 15C5.80625 15.1875 5.80625 15.4102 5.8 15.6504C5.7875 17.1445 5.7625 19.4648 6.20625 20.5254C6.375 20.9297 6.63125 21.293 6.95625 21.6035C7.28125 21.9141 7.675 22.1484 8.10625 22.3066C9.2375 22.7227 11.7063 22.7051 13.3 22.6875C13.5563 22.6875 13.7937 22.6816 14 22.6816C14.2063 22.6816 14.45 22.6816 14.7125 22.6875C16.3062 22.7051 18.7625 22.7285 19.8937 22.3066C20.325 22.1484 20.7125 21.9082 21.0438 21.6035C21.375 21.2988 21.625 20.9297 21.7938 20.5254C22.2438 19.4707 22.2188 17.1621 22.2 15.6621C22.2 15.416 22.1938 15.1875 22.1938 14.9941C22.1938 14.8008 22.1938 14.5781 22.2 14.3262C22.2188 12.832 22.2438 10.5234 21.7938 9.46289C21.625 9.05859 21.3688 8.69531 21.0438 8.38477V8.39648ZM16.85 11.0039C17.9805 11.7125 18.7644 12.8131 19.0293 14.0636C19.2942 15.3141 19.0184 16.612 18.2625 17.6719C17.8882 18.1966 17.4074 18.6472 16.8474 18.9977C16.2874 19.3483 15.6592 19.592 14.9988 19.715C13.6649 19.9633 12.2805 19.7047 11.15 18.9961C10.0195 18.2882 9.23527 17.1884 8.96979 15.9384C8.70431 14.6885 8.97934 13.3909 9.73438 12.3311C10.4894 11.2712 11.6626 10.536 12.9959 10.2871C14.3291 10.0382 15.7133 10.2961 16.8438 11.0039H16.85ZM18.675 10.9277C18.4812 10.8047 18.325 10.6289 18.2313 10.4238C18.1375 10.2188 18.1187 9.99609 18.1625 9.77344C18.2063 9.55078 18.325 9.35742 18.4875 9.19922C18.65 9.04102 18.8687 8.93555 19.1 8.89453C19.3313 8.85352 19.575 8.87109 19.7938 8.95898C20.0125 9.04687 20.2 9.1875 20.3312 9.36914C20.4625 9.55078 20.5312 9.76758 20.5312 9.99023C20.5312 10.1367 20.5 10.2832 20.4438 10.418C20.3875 10.5527 20.2938 10.6758 20.1875 10.7812C20.0812 10.8867 19.9437 10.9688 19.8 11.0273C19.6562 11.0859 19.5 11.1152 19.3438 11.1152C19.1063 11.1152 18.875 11.0508 18.6812 10.9277H18.675ZM28 5.625C28 3.55664 26.2062 1.875 24 1.875H4C1.79375 1.875 0 3.55664 0 5.625V24.375C0 26.4434 1.79375 28.125 4 28.125H24C26.2062 28.125 28 26.4434 28 24.375V5.625ZM22.3125 22.793C21.1437 23.8887 19.725 24.2344 18.125 24.3105C16.475 24.3984 11.525 24.3984 9.875 24.3105C8.275 24.2344 6.85625 23.8887 5.6875 22.793C4.51875 21.6973 4.15 20.3672 4.075 18.8672C3.98125 17.3203 3.98125 12.6797 4.075 11.1328C4.15625 9.63281 4.51875 8.30273 5.6875 7.20703C6.85625 6.11133 8.28125 5.76562 9.875 5.69531C11.525 5.60742 16.475 5.60742 18.125 5.69531C19.725 5.77148 21.1437 6.11133 22.3125 7.20703C23.4813 8.30273 23.85 9.63281 23.925 11.1328C24.0187 12.6738 24.0187 17.3086 23.925 18.8613C23.8438 20.3613 23.4813 21.6914 22.3125 22.7871V22.793Z" fill="black"/>
</svg>
