<svg width="28" height="30" viewBox="0 0 28 30" fill="none" xmlns="http://www.w3.org/2000/svg">
<path d="M4 1.875C1.79375 1.875 0 3.55664 0 5.625V24.375C0 26.4434 1.79375 28.125 4 28.125H24C26.2062 28.125 28 26.4434 28 24.375V5.625C28 3.55664 26.2062 1.875 24 1.875H4ZM22.5688 6.79688L16.0812 13.7461L23.7125 23.2031H17.7375L13.0625 17.4668L7.70625 23.2031H4.7375L11.675 15.7676L4.35625 6.79688H10.4812L14.7125 12.041L19.6 6.79688H22.5688ZM20.2062 21.5391L9.5875 8.37305H7.81875L18.5562 21.5391H20.2H20.2062Z" fill="black"/>
</svg>
